<?xml version="1.0" encoding="utf-8"?>
<!-- Generator: Adobe Illustrator 23.0.6, SVG Export Plug-In . SVG Version: 6.00 Build 0)  -->
<svg version="1.1" id="katman_1" xmlns="http://www.w3.org/2000/svg" xmlns:xlink="http://www.w3.org/1999/xlink" x="0px" y="0px"
	 viewBox="0 0 412 770" style="enable-background:new 0 0 412 770;" xml:space="preserve">
<style type="text/css">
	.st0{fill:#283978;}
	.st1{fill-rule:evenodd;clip-rule:evenodd;fill:#FFFFFF;}
	.st2{fill-rule:evenodd;clip-rule:evenodd;fill:#283978;}
	.st3{fill:#231F20;}
	.st4{fill-rule:evenodd;clip-rule:evenodd;fill:#E03A60;}
</style>
<g id="g10" transform="matrix(1.3333333,0,0,-1.3333333,0,1511.8133)">
	<g id="g12" transform="translate(507.9922,585.6621)">
		<path id="path14" class="st0" d="M-407.3,276.5h-13.5V267l0.1-0.7l0.2-0.7l0.2-0.3l0.2-0.3l0.2-0.3l0.3-0.3l0.3-0.2l0.3-0.3
			l0.3-0.2l0.3-0.1l0.3-0.2l0.3-0.1l0.7-0.1h4.6v-5.1l0.1-0.7l0.2-0.6l0.2-0.3l0.3-0.5l0.3-0.3l0.3-0.3l0.3-0.2l0.3-0.2l0.3-0.2
			l0.3-0.1l0.3-0.1l0.8-0.1h6.7v-9.1l0.1-0.7l0.2-0.7l0.2-0.3l0.3-0.5l0.5-0.5l0.3-0.2l0.3-0.2l0.3-0.2l0.7-0.2l0.7-0.1h24l5-64.6
			l5.1-64.7v-1.3l0.3-1.8l0.3-1.1l0.4-1.1l0.3-0.6l0.3-0.5l0.3-0.5l0.3-0.4l0.7-1l0.4-0.4l0.3-0.4l0.9-0.8l0.5-0.3l0.4-0.4l1-0.6
			l0.5-0.3l0.5-0.2l0.6-0.3l0.5-0.2l1.2-0.3l1.2-0.2h2.5l0.6,0.1l0.5,0.1l1.2,0.3l1.1,0.3l0.5,0.3l0.5,0.3l1,0.6l0.9,0.7l0.5,0.4
			l1.2,1.2l0.3,0.4l0.3,0.5l0.6,1l0.5,1l0.4,1.1l0.3,1.2l0.2,0.5l0.1,0.6v1.3l9.6,65l9.6,65h26l0.7,0.1l0.7,0.2l0.3,0.2l0.3,0.2
			l0.3,0.2l0.5,0.5l0.3,0.5l0.2,0.3l0.2,0.7l0.1,0.7v9.1h6.7l0.8,0.1l0.6,0.2l0.4,0.2l0.5,0.3l0.3,0.3l0.3,0.3l0.3,0.5l0.2,0.3
			l0.1,0.3l0.1,0.3l0.1,0.7v5.1h4.6l0.7,0.1l0.7,0.3l0.3,0.1l0.3,0.2l0.3,0.3l0.3,0.2l0.3,0.3l0.2,0.3l0.2,0.3l0.2,0.3l0.2,0.7
			l0.1,0.7v9.5h-5.8H-407.3z"/>
	</g>
	<g id="g16" transform="translate(508.9302,571.3101)">
		<path id="path18" class="st1" d="M-407.4,277.5h-2.6l0.1-3.5v-1.1l0.1-0.3l0.3-0.5l0.3-0.3l0.3-0.3l0.2-0.1l0.3-0.1l0.3-0.2h87.9
			v2.4l-26.1,0.1l-5,4.1L-407.4,277.5z"/>
	</g>
	<g id="g20" transform="translate(499.457,581.5332)">
		<path id="path22" class="st1" d="M-406.7,276.8h-2.2v-5l0.1-0.4v-0.2l0.3-0.5l0.3-0.3l0.3-0.3l0.3-0.2l0.4-0.2h101.4l3.2,4.5h33.9
			v2.5H-406.7z"/>
	</g>
	<g id="g24" transform="translate(519.25,561.5518)">
		<path id="path26" class="st1" d="M-408.1,278.2h-2.1v-8.4l0.1-0.2v-0.2l0.3-0.3l0.3-0.3l0.3-0.3l0.3-0.2l0.4-0.2h49.4v3.7h52v6.3
			H-408.1z"/>
	</g>
	<g id="g28" transform="translate(547.0161,548.7012)">
		<path id="path30" class="st1" d="M-410.1,279.1l2.2-30.2l1.8-26.3l0.9-11.7l0.9-10.7l0.8-9.8l0.7-8.8l0.7-7.8l0.6-7l0.5-5.9l0.5-5
			l0.5-4l0.3-3.1l0.3-2.1l0.2-0.7l0.2-0.4v-0.3l0.2-0.5l0.1-0.3l0.2-0.4l0.5-0.9l0.3-0.5l0.4-0.4l0.5-0.4l0.6-0.4l0.7-0.3l0.8-0.3
			l0.9-0.3l0.5-0.1h2.4l0.8,0.1l0.6,0.1l0.5,0.3l0.4,0.2l0.3,0.3l0.3,0.2l0.3,0.5v0.3l0.1,0.2v0.4l-0.1,6.5h-5l-0.2,2.3h5.1v3.3
			h-5.3l-0.2,2.4h5.5v3.3h-5.8l-0.2,2.3h5.9l-0.1,3.3h-6l-0.2,2.3h6.2v3.4h-6.5l-0.2,2.3h6.6v3.3h-6.8l-0.2,2.3h7v3.3h-7.2l-0.2,2.4
			h7.4l-0.1,3.3h-7.5l-0.2,2.3h7.7v3.3h-7.9l-0.1,2.3h8v3.4h-8.3l-0.2,2.3h8.5v3.3h-8.7l-0.1,2.3h8.8l-0.1,3.3h-9l-0.2,2.3h9.1v3.4
			h-9.4l-0.1,2.3h9.5v3.3h-9.8l-0.2,2.3h9.9v3.3h-10.1l-0.2,2.4h10.2v3.3h-10.5l-0.2,2.3h10.6v3.3h-10.8l-0.2,2.3h11v3.4h-11.2
			l-0.2,2.3h11.4v3.3h-11.6l-0.2,2.3h11.7v3.3h-11.9l-0.2,2.3h12.1v3.4h-12.3l-0.2,2.3h12.5v3.3h-12.7l-0.2,2.3h12.9l-0.1,3.3h-13
			l-0.1,1.1v1.2h13.1v4.1H-410.1z"/>
	</g>
	<g id="g32" transform="translate(450.7729,516.4346)">
		<path id="path34" class="st2" d="M-403.3,281.4l26.5-40.8l26.6-40.9l0.7-1l0.7-0.8l0.3-0.3l0.3-0.3l0.3-0.2l0.3-0.2l0.6-0.3
			l0.3-0.1h0.8l0.3,0.1l0.2,0.2l0.4,0.4l0.2,0.2l0.2,0.3l0.1,0.3l0.2,0.3l0.2,0.7l0.1,0.9v1l-0.1,1.1v0.5l-0.2,0.6l-5,38.3
			l-4.9,38.3l-0.1,0.7l-0.1,0.6l-0.1,0.5l0.1,0.9l0.2,0.9l0.2,0.8l0.4,0.8l0.3,0.8l0.4,0.7l0.4,0.6l0.6,0.6l1.2,1l0.7,0.4l0.8,0.3
			l1.6,0.5l0.9,0.1l0.9,0.1l1.6-0.2l0.7-0.2l0.8-0.3l0.7-0.3l0.6-0.3l0.6-0.4l0.6-0.4l1-1l0.4-0.6l0.3-0.7l0.2-0.3l0.2-0.3l0.3-0.7
			l0.3-0.8l0.2-0.7l4.6-39l4.7-39l0.3-1.2l0.3-1.2l0.2-2.6l-0.1-1l-0.1-1l-0.1-1l-0.2-1l-0.3-1l-0.3-1l-0.3-0.9l-0.3-1l-0.4-0.9
			l-0.4-0.9l-0.5-0.8l-0.4-0.8l-1.2-1.6l-1.2-1.4l-0.7-0.7l-0.8-0.6l-0.7-0.6l-1.6-1l-0.9-0.4l-0.9-0.5l-1.7-0.7l-1-0.3l-1-0.3
			l-2.9-0.5l-1-0.1h-2.2l-1.2,0.2l-1.1,0.1l-1.1,0.3l-1.1,0.3l-1,0.3l-1,0.3l-1,0.5l-1,0.5l-1,0.6l-0.9,0.6l-0.9,0.7l-0.9,0.7
			l-1.6,1.6l-0.7,0.9l-0.1,0.1l-27.5,42.5l-27.5,42.4l-0.5,0.6l-0.4,0.6l-0.3,0.6l-0.3,0.8l-0.3,0.7l-0.2,0.8l-0.2,1.6l0.1,0.9
			l0.1,0.9l0.5,1.6l0.3,0.8l0.4,0.7l0.5,0.7l0.5,0.6l0.6,0.5l0.7,0.5l0.7,0.4l1.6,0.7l0.9,0.2l0.8,0.2h1l0.9-0.1l1-0.1l0.9-0.3
			l0.4-0.2l0.3-0.2l0.8-0.3l0.8-0.5l0.7-0.5l0.6-0.6l0.4-0.4l0.3-0.5l0.4-0.6L-403.3,281.4z"/>
	</g>
	<g id="g36" transform="translate(668.3945,473.9434)">
		<path id="path38" class="st2" d="M-418.7,284.4l0.1,0.8l0.2,0.8l0.5,1.4l0.4,0.7l0.4,0.6l0.5,0.6l0.5,0.5l0.6,0.5l0.6,0.4l0.7,0.4
			l0.7,0.3l0.7,0.3l0.8,0.2l0.8,0.1l0.8,0.1l0.9-0.1h0.4l0.3-0.1l0.9-0.3l0.7-0.3l0.8-0.3l0.7-0.4l0.6-0.4l0.3-0.3l0.3-0.3l0.5-0.6
			l0.5-0.7l0.3-0.6l0.7-1.6l0.1-0.3l0.2-0.9v-0.3l0.1-0.9l-0.2-1.7v-0.2l-0.2-0.5l-0.2-0.9l-0.3-1.1l-0.8-3l-0.5-1.7l-0.6-1.9
			l-0.7-2l-0.8-2.2l-0.9-2.1l-0.4-1.1l-0.5-1l-0.4-1.1l-0.5-1l-1.1-2.2l-1.2-2l-0.7-1l-0.6-1l-1.4-1.8l-0.7-0.9l-0.7-0.7l-0.8-0.8
			l-0.7-0.6l-0.8-0.6l-0.8-0.6l-1.7-0.9l-1.9-0.7l-2.1-0.3l-1.1-0.1h-1.2l-2,0.1l-1.8,0.2l-0.9,0.1l-0.9,0.2l-1.5,0.3l-0.7,0.2
			l-1.4,0.5l-0.6,0.3l-1.1,0.6l-0.6,0.3l-0.5,0.3l-0.4,0.4l-0.5,0.3l-0.9,0.9l-0.8,1l-0.4,0.5l-0.3,0.5l-0.7,1.2l-0.6,1.2l-0.6,1.3
			l-0.6,1.5l-0.3,1l-0.3,1.1l-0.2,1l-0.1,1.1l-0.1,2.1v3.1l-0.1,1l-0.1,0.4v0.5l-0.3,0.9l-0.3,0.9l-0.4,0.8l-0.3,0.4l-1,1l-0.5,0.3
			l-0.2,0.1l-0.3,0.1h-1l-0.6-0.2l-0.5-0.2l-1.1-0.4l-0.3-0.2l-0.7-0.5l-0.3-0.3l-0.6-0.7l-0.4-0.7l-7.1-45.4l-0.3-0.6l-0.3-0.6
			l-0.3-0.6l-0.4-0.5l-0.4-0.6l-0.4-0.4l-0.4-0.5l-0.5-0.3l-0.5-0.4l-0.6-0.3l-1.2-0.5l-0.7-0.2l-0.6-0.2l-0.7-0.1h-1.6l-0.9,0.2
			l-0.8,0.2l-0.8,0.3l-0.7,0.4l-0.7,0.3l-0.6,0.5l-0.4,0.3l-0.3,0.3l-1,1.2l-0.4,0.7l-0.3,0.7l-0.3,0.8l-0.1,0.4l-0.1,0.3l-0.2,0.9
			v1.6l0.1,0.6l0.1,0.5l7.5,47.5l7.6,47.5v1l0.1,0.4l0.1,0.4l0.2,0.8l0.3,0.8l0.3,0.7l0.4,0.7l0.5,0.6l0.3,0.3l0.3,0.3l1.2,1
			l0.7,0.4l0.7,0.3l0.8,0.3l0.4,0.1l0.4,0.1l0.9,0.2h1.7l0.9-0.2l0.8-0.2l0.8-0.3l0.7-0.3l0.7-0.4l0.6-0.5l0.3-0.3l0.3-0.3l1-1.2
			l0.4-0.7l0.3-0.7l0.3-0.8l0.1-0.4l0.1-0.3l0.2-0.9V326l-0.1-0.6l-6-38.4l0.5,0.3l0.9,0.5l1.1,0.5l0.7,0.3l0.7,0.3l0.9,0.2l0.9,0.1
			l1,0.1l1-0.1l1.1-0.1l0.5-0.1l0.6-0.1l1.2-0.3l1.3-0.4l1.4-0.7l0.6-0.3l0.5-0.3l1-0.8l0.4-0.3l0.4-0.4l0.3-0.4l0.3-0.4l0.6-0.9
			l0.7-1.7l0.2-0.9l0.2-0.8l0.1-0.7v-1.5l-0.1-0.3l0.4-9.3l0.5-1.6l0.5-0.9l0.3-0.5l0.3-0.4l0.4-0.4l0.4-0.3l0.5-0.3l0.6-0.3
			l0.7-0.2l0.7-0.1h0.4l0.3,0.1l0.3,0.2l0.3,0.1l1,0.8l0.3,0.3l0.3,0.3l0.3,0.4l0.5,0.8l0.5,0.9l0.4,0.8l0.7,1.7l0.4,1.5l0.4,1.4
			L-418.7,284.4z"/>
	</g>
	<g id="g40" transform="translate(601.4219,326.2949)">
		<path id="path42" class="st2" d="M-413.9,294.9l-11.2,0.3l-0.9-35.9l0.1-1.3l-0.1-0.9l-0.2-0.8l-0.2-0.7l-0.3-0.8l-0.3-0.6
			l-0.3-0.7l-0.4-0.6l-0.9-1l-0.5-0.4l-1.2-0.7l-0.6-0.3l-1.6-0.3h-1.7l-0.4,0.1l-1.3,0.3l-0.4,0.2l-0.3,0.2l-0.8,0.3l-0.7,0.4
			l-0.7,0.5l-0.6,0.5l-0.6,0.7l-0.5,0.6l-0.4,0.8l-0.3,0.7l-0.3,0.9l-0.3,0.8l-0.1,0.4v0.4l-0.1,1l0.1,1.4l0.1,1.8l0.8,29.9
			l0.6,21.7l0.4,17.7v0.9l-0.1,0.8l-0.2,0.8l-0.2,0.3l-0.1,0.4l-0.3,0.7l-0.4,0.6l-0.4,0.6l-0.5,0.5l-0.6,0.5l-1.4,0.9l-0.8,0.3
			l-0.9,0.3l-0.9,0.2l-1,0.2l-1,0.1l-2.2,0.1h-1l-1-0.1l-0.9-0.2l-0.8-0.2l-0.9-0.3l-0.8-0.3l-0.8-0.4l-0.9-0.5l-0.8-0.6l-1-0.6
			l-1-0.8l-1-0.9l-2.4-2.1l9.5-13.5l0.5-0.6l0.4-0.6l0.4-0.7l0.3-0.7l0.5-2.4v-1.7l-0.2-0.9l-0.2-0.8l-0.2-0.4l-0.2-0.4l-0.4-0.7
			l-0.4-0.8l-0.5-0.7l-0.5-0.6l-0.6-0.5l-0.7-0.5l-0.8-0.4l-0.7-0.3l-0.9-0.3l-0.8-0.2l-0.4-0.1l-0.4-0.1h-1.5l-1.2,0.2l-0.5,0.1
			l-0.6,0.2l-0.5,0.3l-1,0.5l-0.5,0.3l-0.4,0.3l-0.9,0.7l-1,1.3l-0.3,0.5l-27.8,40.4l0.2,0.1l-0.4,1l-0.3,1l-0.1,0.5l-0.1,0.6
			l-0.1,1.1v0.9l0.1,0.4l0.1,0.4l0.2,0.9l0.2,0.3l0.2,0.4l0.3,0.8l0.4,0.7l0.5,0.7l0.5,0.6l0.6,0.5l0.7,0.5l0.7,0.4l0.8,0.4l0.9,0.3
			l0.8,0.2l0.9,0.2l1,0.1l1.8-0.3l0.5-0.1l0.3-0.1l0.3-0.2l0.5-0.2l0.6-0.3l0.4-0.3l1-0.7l1.3-1.3l0.3-0.4l0.3-0.5l0.3-0.5l8.7-12.9
			l1.5,1.5l1.5,1.4l1.5,1.2l1.5,1.1l0.7,0.5l0.8,0.5l1.4,0.9l1.5,0.9l0.8,0.3l0.7,0.3l0.8,0.3l0.8,0.3l0.8,0.3l2.4,0.5l0.8,0.1
			l0.9,0.2h0.9l0.8,0.1h1.8l1.8-0.2l1.9-0.3l1.1-0.2l3.4-0.8l1.1-0.3l1-0.4l2.1-0.9l1-0.5l1.9-1l1-0.6l0.9-0.6l0.9-0.6l0.9-0.7
			l0.8-0.8l0.8-0.7l0.7-0.8l0.7-0.9l0.6-0.8l0.6-0.9l0.5-1l0.5-0.9l0.4-1l0.4-1l0.3-1l0.5-2.1l0.2-1.1l0.2-2.3v-1.7l-0.1-0.2
			l-0.5-20l12.3,0.2l1.7-0.2l0.9-0.2l0.8-0.3l0.4-0.2l0.4-0.2l0.8-0.3l0.6-0.4l1.2-1l0.5-0.6l0.4-0.7l0.3-0.7l0.5-1.6l0.1-0.9
			l0.1-0.9l-0.2-1.7l-0.3-0.8l-0.1-0.4l-0.5-1l-0.4-0.7l-0.5-0.6l-0.6-0.5l-0.6-0.5l-0.6-0.4l-0.8-0.3l-0.8-0.3l-0.8-0.3l-0.9-0.2
			l-1.7-0.2h-0.3l-0.3-0.1H-413.9z"/>
	</g>
	<g id="g44" transform="translate(606.5625,856)">
		<path id="path46" class="st0" d="M-414.3,257.4l-0.8-0.1l-1.4-0.2l-0.6-0.3l-0.7-0.3l-0.6-0.3l-0.5-0.3l-0.6-0.4l-0.3-0.2
			l-0.2-0.3l-0.5-0.5l-0.4-0.5l-0.3-0.5l-0.7-1.2l-0.3-0.6l-0.2-0.7l-0.3,0.1v-34.6h-48.1v34.6l-0.3-0.1l-0.2,0.7l-0.3,0.6l-0.3,0.6
			l-0.3,0.6l-0.4,0.6l-0.4,0.4l-0.4,0.5l-1,0.9l-0.6,0.3l-0.6,0.3l-0.3,0.2l-0.3,0.1l-0.7,0.3l-0.7,0.1l-1.4,0.2h0l-0.9-0.1h-0.4
			l-0.4-0.1l-0.3-0.1l-0.4-0.2l-0.7-0.3l-0.8-0.3l-0.7-0.4l-0.6-0.4l-0.6-0.5l-0.5-0.6l-0.4-0.6l-0.4-0.7l-0.3-0.7l-0.5-1.6
			l-0.2-1.7l0.1-0.8l0.1-0.8l-0.1-0.1v-84.2l-0.1-0.8l0.1-0.9l0.1-0.4v-0.3l0.1-0.4l0.2-0.4l0.3-0.7l0.3-0.8l0.4-0.6l0.4-0.7
			l0.5-0.6l0.6-0.5l0.6-0.4l0.7-0.4l0.8-0.3l0.7-0.3l0.8-0.3l0.9-0.1h1.7l0.4,0.1h0.4l0.3,0.2l0.4,0.1l0.8,0.3l0.7,0.3l0.7,0.4
			l0.6,0.4l0.6,0.5l0.5,0.6l0.5,0.7l0.3,0.6l0.3,0.8l0.4,0.7l0.2,0.9l0.1,0.8l0.1,0.9v37.3h48.1l0.1-36.7l-0.1-0.6l0.1-0.9V161
			l0.1-0.3l0.1-0.4l0.2-0.4l0.3-0.7l0.3-0.8l0.4-0.6l0.4-0.7l0.5-0.6l0.6-0.5l0.6-0.4l0.7-0.4l0.8-0.3l0.7-0.3l0.8-0.3l0.9-0.1h1.7
			l0.4,0.1h0.4l0.3,0.2l0.4,0.1l0.8,0.3l0.7,0.3l0.7,0.4l0.6,0.4l0.6,0.5l0.5,0.6l0.5,0.7l0.4,0.6l0.3,0.8l0.3,0.7l0.2,0.9l0.1,0.8
			l0.1,0.9v0.4l-0.1,0.4l-0.1,42.1v42.1l0.1,0.4v0.4l0.1,0.8l-0.1,0.9v0.4l-0.1,0.4l-0.1,0.3l-0.1,0.4l-0.3,0.8l-0.3,0.7l-0.4,0.7
			l-0.5,0.6l-0.5,0.6l-0.6,0.5l-0.6,0.4l-0.7,0.4l-0.7,0.3l-1.6,0.5l-0.9,0.1L-414.3,257.4L-414.3,257.4z"/>
	</g>
	<g id="g48" transform="translate(636.7852,842.0249)">
		<path id="path50" class="st0" d="M-416.4,258.3l-0.9-0.1h-0.3l-0.4-0.1l-0.8-0.2l-0.8-0.3l-1.4-0.7l-0.7-0.5l-0.5-0.5l-0.5-0.6
			l-0.5-0.6l-0.4-0.7l-0.3-0.7l-0.3-0.8l-0.2-0.8l-0.2-0.9v-1.7l0.1-0.4l0.1-0.5l0.3-0.9l0.3-0.8l0.4-0.8l0.5-0.8l1.2-1.2l1-0.8
			l0.6-0.3l4.5-2.4l2.1-1.2l1.9-1.1l1.9-1.1l1.8-1.2l1.8-1.1l1.7-1.3l1.7-1.2l1.7-1.4l1.8-1.4l1.8-1.6l1.8-1.7l2-1.7l2-1.9l2.2-2.1
			V29.2l-0.1-0.6V27l0.1-0.3l0.2-0.9l0.1-0.3l0.3-0.8l0.3-0.7l0.4-0.7l0.4-0.6l1.1-1.1l0.7-0.5l0.7-0.4l0.7-0.3l0.8-0.3l1.6-0.3h1.7
			l0.4,0.1l0.9,0.2l0.3,0.1l0.8,0.3l0.7,0.3l0.7,0.4l0.7,0.5l0.5,0.5l1,1.2l0.4,0.7l0.3,0.7l0.3,0.8l0.3,1.6v0.9l0.1,0.3v175.3
			l2.3-3l1-1.5l1-1.7l1-1.7l1-1.7l1-1.9l0.9-1.9h0l0.3-0.7l0.7-1.2l0.9-1.7l1-2l1-2.3l0.5-1.2l0.4-1.2l0.3-1.1l0.3-1.2l0.3-1.3
			l0.3-1.2h0.3l3.5-11.2l0.3,0.1l0.5-1l0.3-0.5l0.3-0.4l0.9-0.9l0.9-0.7l1.6-0.8l0.6-0.2l1.2-0.3h0.6l0.6-0.1l0.9,0.1l0.3,0.1h0.4
			l0.4,0.1l0.3,0.2l0.8,0.3l0.7,0.3l0.7,0.4l0.6,0.4l0.6,0.5l1,1.2l0.4,0.7l0.3,0.8l0.3,0.7l0.2,0.8l0.2,0.9v0.9l0,0v0.5l0,0
			l-0.2,1.4l-0.3,0.6l-0.2,0.7l-1.1,4.5h0.2l-0.6,1.9l-0.8,2.3l-1.1,2.4l-1.2,2.7l-2,4.4l-2.4,5l-0.6,1.3l-0.7,1.4l-1.5,2.8
			l-0.8,1.5l-0.9,1.5l-1.8,3.1l-2.1,3.1l-2.3,3.3l-1.3,1.7l-1.3,1.7l-1.4,1.7l-1.4,1.7l-1.6,1.7l-1.7,1.7l-1.7,1.8l-1.7,1.8
			l-1.9,1.8l-1.9,1.8l-2.1,1.8l-2.1,1.8l-7.9,6.8l-2.9,2.5l-2.5,2.1l-1.2,1l-1.1,0.9l-2.5,1.9l-2.9,1.9l-3.4,2.3l-0.4,0.3l-9.9,5.2
			l-0.2,0.1l-0.8,0.3l-0.6,0.2l-0.7,0.1H-416.4z M-364.4,190L-364.4,190L-364.4,190L-364.4,190z"/>
	</g>
	<g id="g52" transform="translate(486.043,613.2402)">
		<path id="path54" class="st2" d="M-405.8,274.5l0.6,0.7l0.7,0.8l0.7,1l0.3,0.5l0.7,1.2l0.3,0.7l0.3,0.8l0.3,0.8l0.3,1.7l0.1,1
			l0.1,0.5v0.5l0.1,0.4l-0.2,57.6v0.3l-0.1,0.9l-0.1,0.6l-0.2,0.7l-0.3,0.9l-0.3,0.9l-0.4,1l-0.6,1l-0.7,1l-0.4,0.5l-0.4,0.6l-1,1
			l-1.3,1.2l-0.7,0.5l-0.8,0.6l-0.8,0.5l-0.9,0.6l-21.9,11l-24.1,12.2l-1,0.3l-1,0.5l-1.4,0.8l-0.8,0.4l-0.8,0.5l-0.9,0.6l-1.7,1.4
			l-1.7,1.7l-0.8,1l-0.8,1l-0.8,1.1l-0.7,1.2l-1,1.9l-0.3,0.6l-0.4,1.5l-0.3,1.5l-0.2,0.8l-0.1,0.9l-0.2,1.7v1.7l0.1,1.9l0.2,1
			l0.1,1l0.3,1l0.2,1l0.3,1l0.3,1.1l0.8,2.2l0.5,1.2l0.5,1.1l1.9,4.4l1,2.4l1.2,2.5l1.3,2.7l1.5,2.9l0.9,1.5l0.8,1.5l1.9,3.1
			l2.1,3.2l2.3,3.3l1.3,1.7l1.3,1.7l1.4,1.7l1.4,1.7l1.6,1.7l1.7,1.8l1.7,1.7l2.7,2.7l1,1l2,1.8l2,1.8l2.2,1.8l4.1,3.5l3.7,3.1
			l3.2,2.7l1.6,1.2l1.4,1.1l2.6,2l2.4,1.7l2,1.5l1.9,1.2l1.7,1l1.6,1l1.5,0.8l1.4,0.7l2.9,1.4l3.1,1.5l1.1,0.5l1,0.3l0.4,0.2
			l0.5,0.2l0.5,0.1h2l0.5-0.2l1.2-0.3l0.6-0.3l0.6-0.3l0.5-0.3l0.9-0.7l0.3-0.4l0.3-0.4l0.3-0.5l0.2-0.5l0.5-1.8l0.1-0.7l0.1-0.8
			l0.1-1.6v-72.7l0.1-0.6l-0.1-0.9l-0.1-0.8l-0.3-0.9l-0.3-0.7l-0.3-0.8l-0.4-0.6l-0.4-0.7l-0.5-0.6l-0.6-0.5l-0.6-0.4l-0.7-0.4
			l-0.8-0.3l-0.7-0.3l-0.4-0.1l-0.3-0.2h-0.4l-0.4-0.1h-1.7l-0.9,0.1l-1.6,0.5l-0.7,0.3l-0.7,0.4l-0.6,0.4l-0.6,0.5l-0.5,0.6
			l-0.5,0.7l-0.3,0.6l-0.3,0.8l-0.4,0.7l-0.2,0.9l-0.1,0.3v0.4l-0.1,0.9v59.8l-5.3-3.9l-2.7-2l-1.3-1l-1.3-1l-2.6-2.1l-2.5-2.2
			l-2.4-2.1l-2.2-2.1l-3.9-3.7l-3.6-3.5l-1.7-1.6l-1.7-1.7l-1.6-1.7l-1.5-1.6l-1.5-1.7l-1.5-1.7l-1.3-1.7l-1.4-1.9l-1.2-2.1
			l-1.2-2.1l-0.6-1.1l-0.6-1.2l-1.1-2.4v0.1l-0.2-0.3l-0.3-0.6l-0.5-1l-1.3-2.6l-0.8-1.6l-1.4-3.5l-0.6-1.8l-0.5-1.7l-0.4-1.7
			l-0.2-1.6v-1.4l0.1-0.6l0.3-0.8l0.2-0.3l0.3-0.4l0.4-0.6l0.6-0.5l0.6-0.6l0.6-0.5l52-26.1l0.9-0.4l0.9-0.5l1-0.6l1-0.7l1-0.8
			l1-0.8l1.9-1.9l0.4-0.5l0.5-0.5l0.4-0.6l0.4-0.6l0.4-0.6l0.4-0.6l0.8-1.4l0.7-1.5l0.3-0.7l0.3-0.9l0.5-1.7l0.5-1.7l0.1,0.1V353
			l0.2-0.9l0.1-0.9l0.2-1.7l0.1-1.7v-1.3l-0.3-64.1h-0.2v-1l-0.2-0.9l-0.1-1l-0.2-0.9l-0.2-0.9l-0.8-2.6l-0.7-1.7l-0.8-1.7l-0.9-1.6
			l-1-1.6l-1-1.6l-1.1-1.5l-2.4-2.8l-1.4-1.3l-1.4-1.2l-1.5-1.1l-1.5-1.1l-1.6-1l-1.6-1l-1.6-0.9l-1.7-0.8l-0.9-0.3l-0.8-0.3
			l-1.7-0.7l-1.7-0.5l-1.7-0.4l-0.8-0.2l-0.9-0.2l-1.7-0.3l-1.6-0.2h-3.1l-0.8,0.1l-0.7,0.1l-0.8,0.2l-0.7,0.1l-0.7,0.3l-0.7,0.2
			l-1.5,0.5l-1.4,0.5l-1.4,0.5l-1.3,0.5l-1.3,0.6l-1.2,0.6l-2.4,1.2l-2.3,1.3l-2.1,1.4l-2,1.4l-1.9,1.6l-1.8,1.5l-0.9,0.9l-0.8,0.8
			l-1.7,1.6l-1.6,1.7l-1.5,1.7l-1.4,1.7l-1.4,1.7l-1.3,1.7l-1,1.6l-1.2,1.9l-1.1,2.3l-1.3,2.4l-1.2,2.6l-1.2,2.9l-1.3,2.9l-1.2,3
			l-1.2,3l-1.2,3l-2.2,5.7l-1.9,5.1l-1.4,4.1l-0.5,1.3l-0.4,1.2l-0.3,1.2l-0.1,0.6v0.7l0.1,0.8l0.1,0.9l0.2,0.8l0.3,0.8l0.7,1.4
			l1,1.2l0.6,0.5l0.6,0.5l1.4,0.7l0.8,0.3l0.4,0.1l0.3,0.1l0.4,0.1h0.4l0.8,0.1h0.8l0.7-0.2l0.7-0.1l0.7-0.3l0.6-0.3l1.2-0.7
			l0.5-0.4l0.5-0.5l0.9-1l0.3-0.6l0.4-0.6l0.3-0.7l0.3-0.7l0.3-0.7l1.1-3.4l1.4-4l0.8-2.2l0.9-2.3l1.9-4.7l1-2.4l1-2.5l1.2-2.5
			l1.2-2.4l1.3-2.5l1.3-2.4l1.4-2.4l1.5-2.3l1.6-2.3l1.6-2.2l1.7-2.1l0.8-1l1.7-1.9l0.9-0.9l1-0.8l0.9-0.8l1-0.8l0.9-0.7l1-0.7
			l1-0.6l1-0.5l1-0.5l1-0.4l1-0.3l1-0.3l1-0.3l1-0.2l1-0.2l1.1-0.1h1l1.1,0.1l1.1,0.2l1,0.2l1.1,0.3l1.1,0.3l1.2,0.4l1.7,0.9
			l0.8,0.4l0.9,0.4l1.5,1l0.7,0.5L-405.8,274.5z"/>
	</g>
	<g id="g56" transform="translate(630.5472,697.4739)">
		<path id="path58" class="st3" d="M-416,268.6l0.6-0.3l-0.1,0.2l-0.2,0.1l-0.1,0.1L-416,268.6l-0.3,0.2L-416,268.6z"/>
	</g>
	<g id="g60" transform="translate(501.7539,594.0088)">
		<path id="path62" class="st4" d="M-406.9,275.9l0.3,0.2l0.7,0.2h0.4l0.3,0.1l0.4-0.1l0.3-0.1l0.3-0.1l0.2-0.1l0.4-0.4l0.2-0.3
			l0.2-0.5l0.2-0.6l0.1-0.3v-1.4l-0.1-0.3l-0.1-0.4l-0.1-0.3l-0.1-0.4l-0.4-0.6l-0.2-0.3l-0.2-0.3l-0.5-0.6l-0.3-0.2l-0.3-0.3
			l-0.6-0.4l-0.6-0.3h128.5l-0.6,0.9l-1,1.9l-0.4,1l-0.6,1.6l-0.3,0.6l0.3,1l0.3,1.1l0.5,1.6l0.7,1.7l0.8,2.1l1,2.3l0.6,1.2l0.6,1.1
			l0.3,0.7l0.3,0.6l0.9,3l0.3,1.7l0.1,0.9l0.1,0.8l0.1,1.7l0.1,1.7v1.7l-0.1,1.6l-0.1,1.5l-0.2,1.4l-0.2,1.2l-0.2,1l-0.2,0.9
			l-0.3,0.6l-0.2,0.3l-0.2,0.3l-0.2,0.4l-0.3,1.2l-0.4,1.7l-0.4,1.7l-0.3,1l-0.3,0.9l-0.3,0.9l-0.3,0.7l-0.4,0.7l-0.4,0.6l-0.3,0.2
			l-0.3,0.3l-0.3,0.2l-0.3,0.1l-0.6,0.3l-0.4,0.3l-0.3,0.3l-0.3,0.4l-0.2,0.4l-0.3,1.3l-0.1,0.8v0.3l-0.2,0.3l-0.1,0.1h-0.3
			l-0.3-0.1l-0.4-0.3l-0.4-0.4l-0.3-0.7l-0.2-0.8l-0.1-0.4l-0.1-0.5v-2.2l0.2-2.4l0.1-1.3l0.2-1.2l0.3-2.4l0.3-2.1l0.1-0.8v-0.7
			l-0.1-0.7l-0.1-0.3l-0.1-0.4l-0.3-0.7l-0.3-0.8l-0.5-0.7l-0.5-0.8l-1.2-1.4l-0.7-0.6l-0.6-0.6l-0.7-0.4l-0.7-0.3l-0.6-0.3
			l-0.6-0.2h-0.3l-0.3,0.1h-0.3l-0.3,0.2l-0.3,0.1l-0.2,0.3l-0.3,0.4l-0.3,0.6l-0.5,1.2l-0.3,0.8l-0.2,0.8l-0.1,0.8l-0.3,1.7
			l-0.2,1.6l-0.1,1.5l-0.2,1.1v0.9l0.1,0.3l0.2,0.4l0.3,0.7l0.3,0.4l0.2,0.5l0.2,0.6l0.2,0.7l0.2,0.9l0.1,1l0.1,1.2v1.3l-0.1,1.6
			l-0.2,1.8l-0.2,1l-0.1,0.9l-0.3,1.4l-0.3,1.2l-0.4,0.9l-0.4,0.7l-0.3,0.6l-0.4,0.4l-0.3,0.3l-0.4,0.3l-0.5,0.7l-0.1,0.2l-0.1,0.3
			v0.5l-0.1,0.3l0.1,0.4l0.1,0.9l0.3,1.1l0.2,0.6l0.2,0.5l0.3,1l0.4,0.8l0.4,0.7l0.2,0.3l0.3,0.2l0.4,0.3l0.3,0.2l0.2,0.1l0.9,0.2
			l0.9-0.2l0.4-0.2l0.3-0.3l0.3-0.2l0.3-0.4l0.3-0.3l0.1-0.3v-0.5l-0.1-0.3v-0.3l-0.2-0.6l0.4-3.7l0.2-0.4l0.2-0.4l0.3-0.7l0.3-0.3
			l0.3-0.3l0.4-0.3l0.3-0.2l0.7-0.4l1.6-0.3h0.4l0.4,0.1h1l0.3-0.1l0.3-0.1l0.2-0.1l0.1,0.1l-0.1,0.2l-0.3,0.8l-0.2,0.7l-0.3,1
			l-0.3,1.1l-0.3,1.5l-0.2,1.7l-0.3,2.1l-0.1,1.1v1.9l0.2,1.6l0.2,0.8l0.2,0.6l0.3,0.6l0.3,0.5l0.3,0.5l0.6,1l0.7,0.9l1.4,1.7
			l0.3,0.4l0.3,0.4l0.3,0.5l0.3,0.6l0.2,0.6l0.3,0.6l0.1,0.7l0.2,0.8v2.8l-0.1,1.1l-0.2,1.1l-0.3,1.3l-0.3,1.7l-0.3,1.5l-0.4,1.4
			l-0.5,1.3l-0.4,1.1l-0.5,1l-0.5,1l-0.5,0.8l-0.5,0.7l-0.4,0.7l-0.5,0.5l-0.5,0.4l-0.4,0.4l-0.4,0.3l-0.8,0.4l0.2-0.3l0.1-0.3v-1
			l-0.1-0.7l-0.2-0.9l-0.2-0.9l-0.5-2l-1.3-4.4l-0.6-2.2l-0.6-2.1l-0.3-1.1l-0.4-1.1l-0.6-1.1l-0.3-0.6l-0.3-0.5l-1.4-2.3l-0.8-1.1
			l-0.9-1l-1.7-2l-1.7-1.7l-0.8-0.8l-0.8-0.7l-1.3-1l-0.3-0.2l-0.3-0.3l-0.5-0.7l-0.5-1l-0.4-1l-0.4-1.2l-0.3-1.2l-0.3-1.3l-0.3-1.4
			l-0.1-1.4l-0.1-0.6v-0.7l0.1-1.2l0.2-1.2l0.1-0.5l0.2-0.5l0.3-0.9l0.5-0.7l0.3-0.3l0.3-0.3l0.6-0.4l0.3-0.3l0.4-0.3l0.3-0.3
			l0.2-0.3l0.9-1.4l0.3-0.7l0.3-0.8l0.3-0.7l0.3-1.4l0.1-0.7l0.1-0.6l0.1-1.4l0.1-0.1l0.1-0.2l0.3-0.4l0.2-0.3l0.2-0.3v-0.2l0.1-0.3
			l-0.1-0.3v-0.3l-0.2-0.6l-0.2-0.3l-0.2-0.4l-0.6-0.9l-0.3-0.4l-0.4-0.5l-1-1.2l-1.3-1.3l-1.7-1.5l-2-1.7l-1.1-0.9l-1-0.9l-1-1
			l-1-0.9l-1.7-1.8l-0.9-0.9l-0.9-1l-1.5-1.7l-1.4-1.8l-1.2-1.7l-1.1-1.6l-1-1.5l-0.8-1.4l-1.3-2.2l-0.7-1.5l-0.3-0.5v-1.9l-0.1-0.9
			l-0.1-1l-0.2-1.1l-0.2-1l-0.2-1.1l-0.7-2.1l-0.3-0.4l-0.2-0.4l-0.3-0.4l-0.6-0.6l-0.3-0.3l-0.3-0.2l-0.4-0.2l-0.4-0.1h-0.9
			l-0.4,0.1h-0.3l-0.3,0.1l-0.5,0.2l-0.4,0.3l-0.5,0.7l-0.2,0.4l-0.1,0.5l-0.2,1.1l-0.2,1.2l-0.1,0.7l-0.2,0.8l-0.3,0.8l-0.3,0.8
			l-0.2,0.4l-0.2,0.9v0.5l0.1,1l0.2,1l0.3,1l0.4,1l0.9,2.3l0.5,1.2l0.9,2.6l0.3,1.3l0.2,0.7l0.1,0.7l0.1,1.5v1.5l-0.1,0.7l-0.1,0.8
			l-0.3,1.6l-0.2,1.4l-0.2,1.3l-0.2,1.1l-0.1,1.1v1.8l0.2,0.8l0.2,0.7l0.3,0.5l0.1,0.3l0.3,0.3l0.3,0.2l0.4,0.2l0.3,0.1l0.3,0.1h1
			l0.3-0.1l0.3-0.2l0.3-0.3l0.3-0.3l0.3-0.4l0.3-0.6l0.2-0.6l0.2-0.7l0.2-0.8l0.2-1.7l0.2-1.8l0.1-1.9V299l0.3-0.2l0.3,0.6l0.3,0.5
			l0.3,0.5l0.9,0.9l0.4,0.3l0.4,0.3l0.5,0.3l2.1,1l2.4,1l1.1,0.6l1.2,0.6l1.1,0.7l1.6,1.3l0.5,0.6l0.5,0.5l0.9,1.4l0.3,0.8l0.4,0.8
			l0.3,1l0.3,1l0.3,1l0.4,1.8l0.3,1.7l0.2,1.5l0.1,1.4l-0.2,2.4l-0.2,1.1l-0.2,1.1l-0.2,1.2l-0.4,2.4l-0.3,1.4v0.7l-0.1,0.7v0.8
			l-0.1,0.9v0.9l0.1,0.9v5.3l-0.1,0.9l-0.2,0.9l-0.3,1.5l-0.3,1.8l-0.4,2.4l-0.2,1.6l-0.2,1.8l-0.3,4.9l-0.2,2.7l0.1,2.3l0.1,1.9
			l0.2,1.6l0.3,1.4l0.1,0.6l0.2,0.5l0.3,1l0.3,0.9l0.6,1.4l0.2,0.6l0.2,0.7v0.3l0.1,0.4v0.3l-0.1,0.4l-0.1,1l-0.3,1.1l-0.2,0.7
			l-0.1,0.5l-0.1,1.1v0.4l0.1,0.5l0.1,0.4l0.5,1.3l0.4,0.9l1.1,1.9l0.6,1.1l0.7,1.3l0.6,1.5l0.3,0.8l0.3,0.9l0.5,2l0.3,1.1l0.3,1.1
			l0.2,1.3l0.3,1.4l0.2,1.5l0.2,1.6l0.2,1.5l0.1,1.5v3.8l-0.1,1l-0.1,1l-0.1,0.9l-0.2,0.9l-0.3,1.4l-0.3,0.6l-0.2,0.6l-0.3,0.4
			l-0.3,0.4l-0.3,0.4l-0.5,0.6l-0.5,0.4l-0.4,0.3l-0.4,0.2l-0.4,0.1l-0.3,0.1h-0.3v-0.7l0.1-0.9l0.1-1.1v-3l-0.1-1.8l-0.1-2
			l-0.3-2.2l-0.1-1.1l-0.2-1.1l-0.2-1.2l-0.3-1.1l-0.5-2.4l-0.3-1.3l-0.3-1.2l-0.4-1.2l-0.4-1.2l-1-2.4l-0.6-1.2l-0.6-1.2l-1.2-2.3
			l-0.5-1l-0.4-1l-0.8-1.9l-0.6-1.7l-0.4-1.7l-0.3-1.6l-0.2-1.4l-0.1-1.3v-6l-0.1-1.1l-0.2-1.2l-0.3-1.2l-0.2-0.6l-0.1-0.8l-0.1-0.7
			l-0.1-0.8v-1.7l0.1-1.8l0.2-2l0.3-2l0.3-2.1l0.3-2.1l0.4-2l0.5-2l0.4-2l1-3.5l0.5-1.5l0.4-1.3l0.4-1l0.2-0.5l0.2-0.6l0.1-0.7v-2.3
			l-0.2-1.8l-0.3-1.9l-0.4-2l-0.5-2l-0.6-2l-1.4-3.8l-0.7-1.7l-0.8-1.5l-0.3-0.6l-0.4-0.5l-0.3-0.5l-0.3-0.4l-0.7-0.5l-0.3-0.1
			l-0.2-0.1h-0.2l-1,0.3l-0.5,0.3l-0.5,0.3l-0.2,0.2l-0.3,0.3l-0.3,0.5l-0.3,0.7l-0.3,0.9l-0.2,1v0.5l-0.1,0.5l0.1,1.3l0.1,1.4
			l0.1,0.8l0.2,0.9l0.3,1.8l0.5,2l0.6,2.2l0.7,2.3l0.2,1l0.3,1l0.1,1l0.2,1l0.1,1.9v2.7l-0.1,0.9l-0.5,3.5l-0.3,1.7l-0.4,1.7
			l-0.9,3.7l-0.4,1.9l-0.4,2.1l-0.4,2.2l-0.3,2.4l-0.3,2.3l-0.3,1.8l-0.1,1.4v2.5l0.1,0.3l0.1,0.7l0.2,0.5l0.4,1.3l0.3,0.7l0.3,1
			l0.3,1.2l0.3,1.5l0.3,1.8l0.3,2.3l0.9,7.8l0.3,2.7v3.5l-0.1,1.2l-0.2,1.1l-0.2,1.3l-0.6,3l-0.9,3.7l-0.3,1l-0.7,1.7l-0.4,0.7
			l-0.4,0.6l-0.4,0.5l-0.5,0.4l-1,0.7l-0.5,0.3l-0.5,0.2l-0.6,0.1l-0.5,0.1h-0.5l-0.5-0.1h-0.4l-0.5-0.1l-0.4-0.2l-0.7-0.3l-0.3-0.2
			l-0.6-0.6l-0.1-0.2V407l0.1-0.2l0.1-0.1l0.3-0.2h0.3l0.3-0.1h1.6l0.6-0.1l0.3-0.1l0.2-0.1l0.2-0.3v-0.2l-0.1-0.2l-0.1-0.4
			l-0.5-1.1l-0.3-0.7l-0.3-0.7l-0.1-0.8l-0.1-0.4v-0.5l0.1-0.4l0.1-0.4l0.3-1l0.3-0.5l0.3-0.5l0.4-0.5l0.5-0.6l0.3-0.3l0.3-0.3
			l0.4-0.6l0.4-0.7l0.3-0.8l0.3-0.7l0.3-0.9l0.2-0.8l0.2-0.9l0.2-1.7v-0.9l0.1-1l-0.1-1.7l-0.1-1l-0.1-0.9l-0.3-1.7l-0.3-1.6
			l-0.3-1.5l-0.3-1.2l-0.4-1.8l-0.3-0.7l-0.1-1l-0.1-1.1l-0.2-1.4l-0.2-1.7l-0.3-1.7l-0.7-3.8l-0.3-1l-0.3-0.8l-0.3-0.8l-0.3-0.7
			l-0.8-1.1l-0.7-1l-0.7-0.9l-0.3-0.4l-0.3-0.3l-0.1-0.4l-0.1-0.3v-0.4l0.1-0.4l0.1-0.3v-1.2l-0.2-1l-0.2-1.3l-0.3-1.3l-0.3-1.5
			l-0.9-3.1l-1-3l-1-2.6l-0.4-1l-0.4-0.9l-0.5-0.8l-0.2-0.1h-0.5l-0.3,0.1l-1,1l-0.3,0.5l-0.3,0.6l-0.4,0.6l-0.3,0.8l-0.6,1.7
			l-0.3,1l-0.3,1l-0.4,2.4l-0.1,0.6v0.7l0.1,0.7l0.1,0.8l0.2,0.7l0.8,2.4l0.7,1.7l0.9,1.7l0.9,1.6l1,1.6l1,1.5l1,1.4l1.7,2.4
			l1.1,1.6l0.5,0.7l0.3,0.7l0.8,1.5l0.5,1l0.5,1.1l0.5,1.2l0.4,1.2l0.4,1.3l0.3,0.6l0.1,0.6l0.2,0.6l0.2,1.2v1.1l-0.1,0.5l-0.2,0.5
			l-0.2,0.4l-0.3,0.4l-0.3,0.3l-0.3,0.3l-1.3,0.8l-0.2,0.2l-0.1,0.2l-0.5,0.7l-0.2,0.3l-0.1,0.4l-0.1,0.3l-0.1,0.4v1.3l0.1,0.8
			l0.2,0.9l0.3,1.6l0.1,0.7v0.5l-0.2,0.5l-0.1,0.2l-0.2,0.2l-0.2,0.1l-0.3,0.1h-0.6l-0.3-0.1l-0.4-0.1l-0.3-0.2l-0.3-0.2l-0.3-0.3
			l-0.3-0.3l-0.4-0.6l-0.3-0.7l-0.3-0.8l-0.3-0.9l-0.3-0.8l-0.3-1.7l-0.2-1.4l-0.1-1v-0.3l0.2-0.4l0.2-0.6l0.2-0.7l0.3-1l0.1-1.1
			l0.1-1.4v-1.6l-0.2-1.8l-0.3-2l-0.3-1l-0.5-2.3l-0.3-1.2l-0.4-1.3l-1-2.6l-0.7-1.4l-0.7-1.5l-0.8-1.5l-0.9-1.5l-1-1.6l-0.7-1.3
			l-0.7-1.3l-0.6-1.2l-0.4-1.1l-0.4-1.2l-0.4-1.1l-0.3-1l-0.3-2.1l-0.1-1v-1l0.1-1l0.2-1.7l0.3-1.6l0.3-0.8l0.5-1.4l0.3-0.6l0.3-0.6
			l0.3-0.6l0.7-1l0.7-0.9l0.6-0.8l0.6-0.5l0.5-0.4l-0.3,0.1h-0.5l-0.3-0.1l-0.2-0.2l-0.2-0.1l-0.3-0.3l-0.2-0.3l-0.3-0.9v-0.5
			l0.1-0.6l0.1-0.5l0.2-0.3l0.1-0.3l0.2-0.3l0.2-0.3l0.5-0.6l0.3-0.3l0.3-0.3l0.7-0.6l0.3-0.1l0.2-0.2l0.5-0.7l0.2-0.4l0.1-0.4
			l0.1-0.5v-0.5l-0.1-0.5l-0.3-1l-0.4-1.2l-0.5-1.1l-0.6-1.2l-0.7-1.2l-0.6-1.2l-1.2-2.1l-0.4-1l-0.3-0.9l-0.1-0.3l-0.1-0.3l0.1-0.3
			v-0.2l0.1-0.2l0.2-0.2h0.2l0.2-0.1l0.3,0.2l0.4,0.3l0.5,0.4l0.5,0.4l1.2,1.2l1.2,1.3l0.7,0.6l0.6,0.5l0.6,0.4l0.5,0.3l0.5,0.2h0.5
			l0.3-0.2l0.3-0.3l0.3-0.3l0.2-0.5l0.2-1.2l-0.1-1.5l-0.1-0.8l-0.1-0.8l-0.3-1.7l-0.4-1.7l-0.5-1.5l-0.1-0.4l-0.2-0.4l-0.5-0.8
			l-0.6-0.8l-0.7-0.9l-0.9-0.9l-0.9-0.9l-2.1-1.9l-2.3-2.1l-2.4-2.3l-1.2-1.1l-1.1-1.2l-2.1-2.4l-0.4-0.7l-0.3-0.7l-0.3-0.7
			l-0.2-0.8l-0.1-0.8l-0.1-0.8l0.3-2.4l0.2-0.8l0.4-1.5l0.5-1.5l0.5-1.3l1-2.3l0.3-0.8l0.1-0.3v-0.4h-0.1v-0.1h-0.2l-0.3,0.1
			l-0.3,0.2l-0.4,0.3l-1.2,0.8l-0.7,0.5l-0.6,0.5l-2,2l-0.7,1l-0.5,1l-0.3,0.4l-0.2,0.5l-0.3,1l-0.1,0.4l-0.1,0.5v2l0.2,1l0.2,1
			l0.2,1l0.3,1l0.5,1.9l0.2,0.5l0.1,0.5l0.1,1v2.1l-0.3,2.3l-0.3,1.1l-0.3,1.2l-0.8,2.4l-1,2.4l-1.8,4.8l-0.4,1.1l-0.2,0.6l-0.1,0.5
			l-0.2,1l-0.1,1v1.7l0.2,0.8l0.1,0.7l0.4,1.2l0.3,0.9l0.3,0.6l0.1,0.2h0.3l0.3-0.1l0.4-0.2l0.5-0.4l0.6-0.6l0.8-1l0.8-1.2l0.4-0.7
			l0.2-0.4l0.1-0.3l0.2-0.8v-1.5l-0.1-0.7l-0.2-0.7l-0.2-0.7l-0.2-0.6l-0.3-0.5l-0.4-1l-0.3-0.6l-0.2-0.2l0.1-0.3l0.3-0.7l0.3-0.5
			l0.3-0.4l0.3-0.5l0.3-0.5l0.4-0.4l0.4-0.3l0.3-0.2l0.3-0.1l0.6-0.1h0.6l0.3,0.1l0.4,0.2l0.4,0.2l0.3,0.3l0.8,0.6l0.4,0.5l0.3,0.6
			l0.2,0.3l0.2,0.4l0.3,0.9l0.3,1l0.2,1.1l0.2,1.2l0.2,1.3l0.1,1.4l0.1,1.5v6.4l-0.1,1.7l-0.1,1.7l-0.3,3.4l-0.3,3.3l-0.4,3.2
			l-0.4,3.1l-0.3,1.4l-0.3,1.3l-0.3,1.2l-0.3,1.1l-0.3,1l-0.3,0.9l-0.3,0.8l-0.4,0.6l-0.3,0.6l-0.3,0.7l-0.3,1.4l-0.1,0.8l-0.1,0.9
			v1.7l0.2,1.9l0.3,1.9l0.2,1l0.3,1l0.5,2l0.6,2.1l0.3,1l0.3,1l0.7,2l0.8,2l0.7,1.8l0.8,1.7l0.7,1.7l0.7,1.4l0.3,0.7l0.3,0.8
			l0.3,0.9l0.3,1.9l0.2,1l0.1,1.1l0.2,1.1v1.2l0.1,1.3v1.3l-0.1,1.3l-0.1,2.8l-0.3,2.9l-0.2,1.5l-0.2,1.5l-0.3,1.5l-0.3,1.5l-0.6,3
			l-0.7,3l-0.4,1.4l-0.4,1.5l-0.9,2.8l-0.5,1.3l-0.6,1.3l-0.5,1.3l-0.6,1.2l-0.5,1.1l-0.5,1.2l-0.4,1.1l-0.3,1.1l-0.3,1l-0.3,1.1
			l-0.2,1l-0.1,1l-0.1,1v1.9l0.3,2.6l0.3,1.6l0.2,0.7l0.2,0.7l0.3,0.7l0.2,0.6l0.4,1l0.5,1l0.7,1.2l0.3,0.4l-0.5-0.2l-0.7-0.2
			l-0.4-0.2l-0.4-0.3l-1-0.6l-0.6-0.3l-0.6-0.5l-0.7-0.5l-1.3-1.3l-0.7-0.8l-0.3-0.4l-0.3-0.4l-0.2-0.6l-0.3-0.5l-0.1-0.6l-0.2-0.6
			l-0.1-0.7v-2.1l0.1-1.5l0.2-1.5l0.3-1.5l0.3-1.5l0.3-1.3l0.6-2.3l0.5-1.6l0.2-0.6l3.8-19.1l0.2-0.6l0.3-1.9l0.2-1.4l0.2-1.7
			l0.1-1.8l0.1-1v-3.3l-0.2-2.4l-0.1-1.3l-0.1-1.3l-0.2-1.4l-0.3-1.4l-0.5-2.8l-0.3-1.5l-0.4-1.5l-0.3-1.5l-0.5-1.5l-0.5-1.6
			l-0.6-1.5l-0.5-1.5l-0.4-1.4l-0.8-2.4l-0.3-1l-0.2-1l-0.1-0.9l-0.1-0.7l-0.1-1.4v-0.5l0.1-0.5l0.1-0.9l0.2-0.8l0.1-0.6V351
			l0.1-0.3l-0.3-1l-0.2-0.3l-0.2-0.4l-0.3-0.5l-0.8-1l-0.5-0.6l-0.5-0.7l-1.6-1.7l-0.8-0.9l-0.8-0.9l-1.2-1.7l-0.5-0.9l-0.9-1.6
			l-0.3-0.9l-0.3-0.8l-0.2-0.7l-0.3-1.6l-0.1-1.6v-2.3l0.1-0.7l0.2-1.6l0.6-3.1l0.6-3.2l0.3-1.7l0.2-0.9l0.1-1l0.1-1.7l-0.1-1.6
			l-0.1-1.3l-0.2-1.1l-0.3-1l-0.3-0.9l-0.3-0.8l-0.4-0.7l-0.7-1.3l-0.3-0.7l-0.3-0.6l-0.3-0.7l-0.1-0.4l-0.1-0.3l-0.2-1v-2.1
			l-0.1-1.1l-0.3-1.3l-0.3-1.3l-0.3-1.4l-0.4-1.4l-0.5-1.4l-0.6-1.5l-0.6-1.4l-0.6-1.5l-1.4-2.7l-1.3-2.5l-0.7-1.2l-0.7-1l-0.5-1
			l-0.2-0.5l-0.2-0.4l-0.2-1v-0.9l0.2-1l0.2-0.9l0.4-0.8l0.3-0.8l0.4-0.7l0.4-0.6l0.9-1l0.7-0.7l0.3-0.2l-0.5,0.1l-0.6,0.3l-0.8,0.4
			l-1,0.4l-1.1,0.6l-1.2,0.9l-2.1,1.6l-0.3,0.3l-0.2,0.3l-0.2,0.3l-0.2,0.3l-0.1,0.3l-0.2,0.3l-0.1,0.6v0.8l0.1,0.8l0.2,0.8l0.4,1.9
			l0.4,2.3l0.3,1.3l0.2,1.4l0.2,1.5l0.1,1.7v0.9l-0.1,0.8v0.9l-0.2,0.9l-0.1,0.8l-0.5,2.4l-0.5,1.6l-0.5,1.5l-0.6,1.4l-0.6,1.3
			l-0.7,1.3l-0.6,1.2l-1.3,2.1l-1,1.8l-0.4,0.7l-0.3,0.6l-0.3,0.6l-0.4,0.5l-0.5,0.6l-0.6,0.5l-0.6,0.4l-0.7,0.4l-0.6,0.4l-1.2,0.5
			l-0.5,0.2l-0.4,0.2h-0.3l-0.2-0.2v-0.2l0.1-0.3l0.3-0.4l0.2-0.3l0.2-0.3l0.3-0.8l0.3-1l0.2-1l0.1-1.1l0.1-1.2v-2.7l-0.1-2.6
			l-0.2-2.6l-0.2-2.4l-0.3-1.8l-0.2-1.7l-0.2-1l-0.3-1l-0.3-1.1l-0.3-1.1l-0.9-2.3l-0.6-1.1l-0.6-1.1l-0.7-1.1l-0.3-0.5l-0.4-0.6
			l-0.9-1l-1.5-1.5l-0.5-0.4l-1.1-0.9l-1.4-1l-1.2-0.7l-1-0.5l-0.8-0.3l0.3-1.8L-406.9,275.9z"/>
	</g>
	<g id="g64" transform="translate(514.7002,653.5762)">
		<path id="path66" class="st4" d="M-407.8,271.7l0.3-1.8l0.2-0.9l0.3-0.9l0.4-1.6l0.5-1.4l0.3-0.6l0.3-0.5l0.3-0.5l0.3-0.4l1.7-1.9
			l2-2.1l2.1-2.4l1-1.3l1.1-1.4l1-1.4l1-1.5l0.4-0.8l0.4-0.7l0.3-0.8l0.4-0.8l0.3-0.9l0.3-0.8l0.3-0.8l0.2-0.9l0.2-0.8l0.2-0.9v-0.9
			l0.1-0.9l1.6-4.3l0.3,1.1l0.3,1.1l0.3,1l0.4,1l0.8,1.9l0.9,1.7l1.7,3.3l0.8,1.6l0.6,1.7l0.3,0.9l0.3,0.8l0.3,1l0.2,0.9v0.5
			l0.1,0.4l0.1,1v2.2l-0.2,1.1l-0.2,1.2l-0.2,1.3l-0.3,1.4l-0.3,1.4l-0.5,1.6l-0.5,1.6l-0.7,1.7l-0.6,1.7l-0.5,1.6l-0.3,1.6
			l-0.3,1.4l-0.1,1.4l-0.1,1.2v1.2l0.1,0.6v0.6l0.2,1.1l0.3,1l0.2,1.1l0.3,1l0.5,2.1l0.5,2.2l0.3,1l0.2,1.1l0.2,1.2l0.1,1.2v2.7
			l-0.2,1.4l-0.3,1.6l-0.4,1.7l-0.2,0.8l-0.3,1l-0.6,1.8l-0.8,1.9l-1,2.1l-0.5,1.1l-0.6,1.1l-1.3,2.4l-1.6,2.5l-0.2,0.4l-1,1.4
			l-1.2,1.5l-1.6,1.7l-1.7,1.8l-0.9,1l-1,1l-1,0.9l-1,0.8l-0.9,0.7l-0.5,0.3l-0.4,0.3l0.2-0.8l0.4-1l0.5-1.3l0.6-1.7l0.7-2.1
			l0.7-2.3l1-3.9l0.3-1.4l0.3-1.5l0.3-1.4l0.3-1.5l0.2-1.5l0.2-3v-2.9l-0.1-1.4l-0.2-1.4l-0.2-0.7l-0.2-0.6l-0.3-1.3l-0.2-0.6
			l-0.3-0.6l-0.5-1.1l-0.3-0.6l-0.7-1l-0.4-0.4l-0.8-1l-0.7-1l-0.7-1l-0.6-1l-0.5-1l-0.5-1.1l-0.4-1l-0.3-1.1l-0.3-1.1l-0.3-1
			l-0.3-1.1l-0.2-1l-0.2-1.1l-0.2-1l-0.1-2.2v-2l0.1-1L-407.8,271.7z"/>
	</g>
	<g id="g68" transform="translate(545.0898,705.166)">
		<path id="path70" class="st4" d="M-409.9,268l-0.1-1l-0.1-1v-2.3l0.1-0.3l0.1-0.7l0.2-0.6l0.4-1.1l0.4-1.3l0.5-1.5l0.5-1.6
			l0.4-1.7l0.2-0.9v-0.4l0.1-0.5l0.1-0.9v-1.8l-0.2-1l0.2-2.4l0.4,1.2l0.4,1l0.9,1.7l0.9,1.6l0.3,0.8l0.4,0.8l0.5,1.7l0.3,1l0.2,1.1
			l0.1,1.3l0.1,0.7v0.7l-0.1,1.7l-0.1,1.9l-0.1,1v2.5l0.2,1.4l0.3,1.2l0.3,1.2l0.4,1l0.8,2.1l0.3,1.2l0.3,1.2l0.2,1.4l0.1,0.8v0.9
			l0.1,0.9l-0.1,1l-0.1,1l-0.1,1.1l-0.1,1.2l-0.3,1.2l-0.3,1.4l-0.3,1.5v0.3l-0.3,0.8l-0.7,2l-0.9,2.3l-0.3,0.6l-0.3,0.5l-0.5,0.9
			v-0.4l0.1-0.6l0.1-1.7l0.1-2.4l0.1-1.5v-1.5l-0.2-3.1l-0.2-1.6l-0.3-1.6l-0.5-2.1l-0.3-0.7l-0.5-1.1l-0.3-0.5l-0.7-0.9l-0.3-0.5
			l-0.5-1l-0.6-1l-0.4-1l-0.4-1.1l-0.3-1.1l-0.3-1.1l-0.2-1L-409.9,268z"/>
	</g>
	<g id="g72" transform="translate(535.4302,704.6973)">
		<path id="path74" class="st4" d="M-409.3,268.1l0.7-1.2l0.5-0.5l0.4-0.6l0.5-0.5l1-1l0.8-0.7l0.9-0.7l-0.2,0.3l-0.3,0.8l-0.3,1.2
			l-0.2,0.8l-0.2,0.8v0.4l-0.1,0.4v0.9l0.1,1l0.3,1l0.4,1l0.2,0.5l0.3,0.4l0.3,0.5l0.3,0.4l1.3,1.3l0.7,0.9l0.3,0.5l0.5,0.9l0.4,0.8
			l0.3,0.9l0.2,0.8l0.1,0.8l0.1,0.7l-0.1,0.7l-0.1,0.6l-0.2,1l-0.2,0.6l-0.1,0.3l-0.1-0.2v-0.4l-0.2-0.7l-0.3-0.9l-0.2-0.4l-0.2-0.5
			l-0.3-0.5l-0.3-0.6l-0.3-0.5l-0.5-0.6l-1.1-1.1l-2.4-1.9l-0.9-0.8l-0.4-0.4l-0.3-0.4l-0.3-0.3l-0.5-0.9l-0.2-0.4l-0.2-0.5
			l-0.1-0.5l-0.1-0.5v-1.2l0.2-0.6L-409.3,268.1z"/>
	</g>
	<g id="g76" transform="translate(624.0742,725.334)">
		<path id="path78" class="st4" d="M-415.5,266.6l-0.2-1.2l-0.3-1.3l-0.3-1.4l-0.4-1.4l-1-2.9l-1.3-3.3l-1.5-3.7l-1.6-4.2l-0.3-0.9
			l-0.3-0.8l-0.4-1.7l-0.3-1.6l-0.2-1.7l-0.2-1.6V236l0.1-1.5l0.2-1.5l0.2-1.4l0.5-2.5l0.3-1.2l0.3-1l0.5-1.9l0.2,0.2l0.4,1.3
			l0.2,0.3l0.1,0.2l0.2,1.2l0.4,2.4l0.4,1.7l0.3,1.1l0.3,0.7l0.4,1l0.2,0.8l0.3,1l0.2,0.6l0.2,0.6l0.6,1.5l1.4,3.4l1.7,3.8l1.8,4.1
			l3.7,7.5l1.3,3l0.5,1.1l0.3,0.9l0.3,0.9l0.2,1.1l0.1,1.4l0.1,1.5v1.7l-0.3,3.5l-0.3,1.9l-0.3,1.8l-0.4,1.9l-0.5,1.7l-0.6,1.7
			l-0.7,1.6l-0.4,0.8l-0.9,1.4l-0.5,0.6l-1,1l-0.3,0.3l-0.3,0.3l-0.2,0.3l-0.3,0.2l-0.3,0.6l-0.3,0.5l-0.3,0.5l-0.3,0.6l-0.2,0.6
			l-0.2,0.5l-0.1,1.2v1.2l0.1,1.2l0.3,1.1l0.3,1l0.3,1l0.7,1.7l0.5,1.1l0.3,0.4l-0.2-0.2l-0.6-0.3l-1-0.6l-0.5-0.4l-1.8-1.8
			l-0.6-0.8l-0.7-1l-0.7-1l-0.6-1.1l-0.6-1.3l-0.6-1.3l-0.3-0.8l-0.5-2.1v-0.6l-0.1-0.7V288l0.1-0.6l0.2-1.3l0.7-2.6l0.3-0.6
			l0.2-0.6l1.1-2.5l1-2.5l0.6-1.3l0.4-1.3l0.4-1.3l0.2-0.7l0.1-0.6l0.2-0.7l0.1-0.7v-0.6l0.1-0.7v-1.3L-415.5,266.6z"/>
	</g>
	<g id="g80" transform="translate(568.168,740.7158)">
		<path id="path82" class="st4" d="M-411.6,265.5l0.2-0.5l0.3-0.9l1-1.7l0.6-1l0.6-1.1l0.6-1.1l0.3-1.2l0.2-0.7l0.1-0.6v-1.3
			l0.3-1.7l0.3,0.9l0.3,0.8l0.3,0.7l0.4,0.6l0.8,1.2l0.6,1.2l0.3,0.6l0.2,0.7l0.2,0.7l0.1,0.9v1l-0.1,1l-0.2,1.2l-0.3,1.3l-0.1,0.7
			l-0.2,1.2v1.6l0.3,1.7l0.3,0.8l0.3,0.8l0.3,0.8l0.3,0.9l0.1,0.4l0.1,0.5l0.1,0.4v2.4l-0.2,0.7l-0.1,0.7l-0.2,0.8l-0.5,1.7l-0.8,2
			l-0.1,0.2l-0.3,0.5l-0.9,1.3l-0.4,0.8l-0.6,0.8l-0.6,0.7l-0.5,0.5v-0.3l0.3-1.6l0.3-1.7l0.2-2.1l0.1-1.1v-1.1l-0.1-1.1l-0.1-1.1
			l-0.1-0.5l-0.3-1l-0.3-0.9l-0.5-0.9l-0.3-0.3l-0.6-0.7l-1-1.6l-0.2-0.4l-0.2-0.3l-0.3-0.9l-0.3-0.8l-0.2-0.9l-0.3-2.4v-0.7
			l0.1-0.7L-411.6,265.5z"/>
	</g>
</g>
</svg>
